<?xml version="1.0" encoding="UTF-8" standalone="no"?>
<svg xmlns:dc="http://purl.org/dc/elements/1.1/" xmlns:cc="http://web.resource.org/cc/" xmlns:rdf="http://www.w3.org/1999/02/22-rdf-syntax-ns#" xmlns:svg="http://www.w3.org/2000/svg" xmlns="http://www.w3.org/2000/svg" xmlns:xlink="http://www.w3.org/1999/xlink" xmlns:sodipodi="http://sodipodi.sourceforge.net/DTD/sodipodi-0.dtd" xmlns:inkscape="http://www.inkscape.org/namespaces/inkscape" width="1000" height="750" viewBox="0 0 1000 750" id="svg2335" sodipodi:version="0.32" inkscape:version="0.44" sodipodi:docname="sine wave.svg" sodipodi:docbase="C:\Documents and Settings\Omegatron\My Documents\Wikipedia\Waveforms\Sine wave">
  <metadata id="metadata2494">
    <rdf:RDF>
      <cc:Work rdf:about="">
        <dc:format>image/svg+xml</dc:format>
        <dc:type rdf:resource="http://purl.org/dc/dcmitype/StillImage"/>
      </cc:Work>
    </rdf:RDF>
  </metadata>
  <sodipodi:namedview inkscape:window-height="588" inkscape:window-width="909" inkscape:pageshadow="2" inkscape:pageopacity="0.0" guidetolerance="10.0" gridtolerance="10.0" objecttolerance="10.0" borderopacity="1.0" bordercolor="#666666" pagecolor="#ffffff" id="base" inkscape:zoom="0.49866667" inkscape:cx="447.55195" inkscape:cy="343.74318" inkscape:window-x="664" inkscape:window-y="190" inkscape:current-layer="svg2335"/>
  <desc id="desc2337">Produced by GNUPLOT 4.0 patchlevel 0 </desc>
  <defs id="defs2339">
    <circle id="gpDot" r="1"/>
    <path id="gpPt0" style="stroke-width:0.133" d="M-1,0 h2 M0,-1 v2"/>
    <path id="gpPt1" style="stroke-width:0.133" d="M-1,-1 L1,1 M1,-1 L-1,1"/>
    <path id="gpPt2" style="stroke-width:0.133" d="M-1,0 L1,0 M0,-1 L0,1 M-1,-1 L1,1 M-1,1 L1,-1"/>
    <rect id="gpPt3" style="stroke-width:0.133" x="-1" y="-1" width="2" height="2"/>
    <use xlink:href="#gpPt3" id="gpPt4" style="fill:currentColor; stroke:none"/>
    <circle id="gpPt5" style="stroke-width:0.133" cx="0" cy="0" r="1"/>
    <use xlink:href="#gpPt5" id="gpPt6" style="fill:currentColor; stroke:none"/>
    <path id="gpPt7" style="stroke-width:0.133" d="M0,-1.33 L-1.33,0.67 L1.33,0.67 z"/>
    <use xlink:href="#gpPt7" id="gpPt8" style="fill:currentColor; stroke:none"/>
    <use xlink:href="#gpPt7" id="gpPt9" transform="rotate(180)"/>
    <use xlink:href="#gpPt9" id="gpPt10" style="fill:currentColor; stroke:none"/>
    <use xlink:href="#gpPt3" id="gpPt11" transform="rotate(45)"/>
    <use xlink:href="#gpPt11" id="gpPt12" style="fill:currentColor; stroke:none"/>
  </defs>
  <g style="fill:none;color:red;stroke:#0003ff;stroke-width:10;stroke-miterlimit:4;stroke-dasharray:none;stroke-linecap:round;stroke-linejoin:round;stroke-opacity:1" id="g2485">
    <path d="M41,373 L50,351 L60,329 L69,308 L78,287 L87,267 L97,248 L106,230 L115,213 L124,198    L134,185 L143,173 L152,163 L162,154 L171,148 L180,144 L189,142 L199,142 L208,144 L217,148    L226,154 L236,163 L245,173 L254,185 L264,198 L273,213 L282,230 L291,248 L301,267 L310,287    L319,308 L328,329 L338,351 L347,373 L356,395 L366,417 L375,438 L384,459 L393,479 L403,498    L412,516 L421,533 L430,548 L440,561 L449,573 L458,583 L468,592 L477,598 L486,602 L495,604    L505,604 L514,602 L523,598 L532,592 L542,583 L551,573 L560,561 L570,548 L579,533 L588,516    L597,498 L607,479 L616,459 L625,438 L634,417 L644,395 L653,373 L662,351 L672,329 L681,308    L690,287 L699,267 L709,248 L718,230 L727,213 L736,198 L746,185 L755,173 L764,163 L774,154    L783,148 L792,144 L801,142 L811,142 L820,144 L829,148 L838,154 L848,163 L857,173 L866,185    L876,198 L885,213 L894,230 L903,248 L913,267 L922,287 L931,308 L940,329 L950,351 L959,373    " id="path2487" style="stroke-width:32;stroke-miterlimit:4;stroke-dasharray:none;stroke-linecap:round;stroke-linejoin:round;stroke:#ffffff;stroke-opacity:1"/>
  </g>
</svg>
